# xmcd CD database file
#
# Track frame offsets:
#	150
#	18689
#	34908
#	53763
#	69882
#	86042
#	109772
#	126661
#	142921
#	159232
#
# Disc length: 2391 seconds
#
# Revision: 0
# Processed by: cddbd v1.5.2PL0 Copyright (c) Steve Scherf et al.
# Submitted via: CDex 1.70beta2
#
DISCID=8409550a
DTITLE=Jody Grind Band - Losing Time
DYEAR=2004
DGENRE=Blues
TTITLE0=Please Stay
TTITLE1=Losing Time
TTITLE2=Drifting
TTITLE3=Drumstick
TTITLE4=Fly
TTITLE5=Raised in Black
TTITLE6=What Goes On
TTITLE7=Two Exits
TTITLE8=Alright Mama
TTITLE9=You and Me
EXTD=YEAR: 2004
EXTT0=
EXTT1=
EXTT2=
EXTT3=
EXTT4=
EXTT5=
EXTT6=
EXTT7=
EXTT8=
EXTT9=
PLAYORDER=
